PathFileType	4	(X/Y/Z)	C:/Users/beibeiliu/ov580/test_trc/capture2\sequence.5_training_dense_right.trc
DataRate	CameraRate	NumFrames	NumMarkers	Units	OrigDataRate	OrigDataStartFrame	OrigNumFrames
120	120	20	19	mm	120	88	350
Frame#	Time	ThumbCMC			ThumbMCP			ThumbIP			ThumbTip			IndexMCP			IndexPIP			IndexTip			MiddleMCP			MiddlePIP			MiddleTip			RingMCP			RingPIP			RingTip			PinkyMCP			PinkyPIP			PinkyTip			BackHand1			BackHand2			BackHand3	
		X0	Y0	Z0	X1	Y1	Z1	X2	Y2	Z2	X3	Y3	Z3	X4	Y4	Z4	X5	Y5	Z5	X6	Y6	Z6	X7	Y7	Z7	X8	Y8	Z8	X9	Y9	Z9	X10	Y10	Z10	X11	Y11	Z11	X12	Y12	Z12	X13	Y13	Z13	X14	Y14	Z14	X15	Y15	Z15	X16	Y16	Z16	X17	Y17	Z17	X18	Y18	Z18	
87	0.725	132.746	53.9982	-16.794	107.946	53.183	-45.0341	96.0328	47.6113	-71.2234	98.6554	23.391	-87.2688	161.79	42.0085	-86.3984	159.714	42.6101	-107.956	163.731	41.797	-132.142	135.359	24.2049	-89.112	106.025	27.9582	-83.4714	109.967	29.2152	-47.0477	125.178	7.36956	-78.1174	100.559	13.5872	-60.4038	114.416	22.7828	-32.515	123.543	-9.34735	-65.8876	105.18	4.50394	-49.1303	125.038	11.8172	-23.429	166.914	0.3591	-34.9644	164.892	2.78632	-5.38904	167.038	32.3291	-19.7648	
88	0.733333	133.089	55.0875	-15.5338	106.587	57.1515	-43.2068	98.6749	48.3454	-67.8688	100.53	24.5783	-83.3263	162.061	42.0023	-84.7964	162.172	41.2124	-111.518	165.069	40.926	-135.678	135.881	21.4446	-88.792	106.3	25.5807	-84.5419	110.459	32.5026	-46.4004	125.045	11.3118	-78.0946	101.223	17.5703	-60.4539	116.626	21.6203	-29.3736	126.001	-6.04567	-66.5958	104.129	5.32572	-47.4113	126.382	14.2211	-23.118	165.042	4.17453	-38.7805	165.826	5.434	-6.99757	168.416	34.5326	-21.7356	
89	0.741667	133.801	56.191	-21.4443	107.428	56.6464	-43.1935	97.3849	50.0388	-71.0187	98.9665	27.8026	-82.8401	162.093	45.3135	-85.3718	161.877	47.4031	-108.493	167.119	38.2039	-135.171	137.188	24.1547	-87.2372	105.436	29.9223	-82.9619	112.628	35.0262	-46.738	125.371	12.1632	-79.0386	101.369	15.6062	-63.2709	113.697	25.7703	-33.4331	123.506	-6.60913	-67.0662	104.214	6.74176	-51.3911	120.543	14.4842	-23.9049	165.373	2.28985	-35.617	164.748	3.15073	-6.65704	169.479	37.3044	-24.5756	
90	0.75	132.687	57.9886	-19.0177	106.897	57.8387	-46.2233	97.4294	49.7364	-73.5259	97.4785	26.506	-87.4871	163.186	48.3452	-87.1562	161.098	43.8213	-109.203	164.597	41.5196	-133.229	138.391	24.5032	-86.9801	106.157	30.7164	-83.9861	109.054	33.6798	-48.4133	126.947	8.75978	-78.3545	100.834	18.9334	-60.8557	115.716	24.2418	-31.6915	125.007	-5.1274	-66.6659	102.894	5.11544	-48.7211	120.014	14.5024	-26.1071	165.212	5.33023	-39.1981	164.366	7.86069	-2.59251	169.593	38.3536	-24.0084	
91	0.758333	134.113	54.7222	-19.2803	107.079	57.9517	-46.0244	96.5353	49.7691	-66.1848	95.6319	29.2959	-86.0737	160.598	44.482	-86.8266	158.424	46.3736	-113.502	159.016	41.3007	-135.897	135.719	25.5361	-87.664	103.229	30.5325	-80.7661	110.406	34.105	-46.3837	124.736	11.1213	-79.0735	98.5163	17.3296	-59.5836	113.292	25.5675	-33.5831	122.718	-7.98068	-66.8819	102.846	7.53234	-48.3144	119.415	15.1671	-25.7419	165.342	3.39328	-39.5596	164.879	4.24221	-4.35238	167.843	36.8723	-21.1976	
92	0.766667	133.299	56.5441	-20.8119	108.008	54.3527	-42.2499	94.4363	51.4932	-66.5232	96.588	28.0928	-81.4341	156.094	48.0374	-87.8733	151.674	47.7801	-114.565	148.001	40.9372	-136.848	134.224	26.418	-87.9208	102.743	32.3228	-80.9091	108.423	30.4417	-46.416	123.753	12.2846	-78.1119	98.0652	16.5202	-63.6948	115.608	23.4395	-29.9425	119.023	-5.22438	-68.2021	101.313	6.93385	-52.152	120.158	17.2044	-25.2239	164.792	3.01961	-38.5379	165.309	3.03384	-3.75279	166.082	36.2203	-22.2794	
93	0.775	133.325	55.9307	-19.2596	105.017	56.6335	-40.426	94.9272	49.7832	-68.8961	92.6518	30.2212	-85.598	151.323	48.021	-87.7977	142.843	50.2604	-111.853	132.528	40.9006	-136.591	133.833	28.6046	-86.4775	99.4056	27.7824	-77.931	110.141	33.1473	-44.1505	121.392	11.0749	-77.6418	97.9593	16.2542	-62.4517	110.13	25.6841	-33.6454	120.387	-5.10005	-66.6237	99.806	5.33179	-49.1093	120.095	15.6878	-24.7715	164.325	1.69761	-40.5222	165.135	8.01371	-3.46124	168.475	37.0765	-26.1218	
94	0.783333	131.498	54.6434	-15.2271	103.967	56.3743	-37.21	91.8805	51.033	-66.9534	92.6893	27.2566	-83.7653	144.961	45.0616	-89.1047	132.196	46.316	-113.371	119.756	45.0672	-132.895	129.715	26.293	-86.9989	97.8176	27.7222	-77.0193	109.197	31.9526	-42.4323	119.528	8.40496	-77.8542	95.9051	13.2557	-60.1956	109.22	21.1851	-30.0897	122.802	-4.5664	-64.9925	100.131	6.60006	-49.5336	120.957	16.7598	-23.4109	162.252	2.56251	-39.5065	164.912	5.31591	-9.13688	167.681	39.1922	-22.2651	
95	0.791667	130.145	57.3598	-17.3742	102.856	58.1128	-38.2295	90.8307	50.6733	-67.9679	92.739	29.5484	-80.9427	142.632	48.5266	-87.021	126.111	46.5429	-110.848	109.957	44.4976	-128.825	129.936	22.8756	-85.1911	96.8568	27.4565	-79.0963	105.646	29.4351	-43.1619	121.392	9.55838	-77.0169	95.4199	14.6655	-61.2083	109.283	22.1227	-30.789	120.254	-4.56325	-65.9258	99.3814	5.75467	-46.4879	118.393	14.275	-24.6415	164.008	5.34349	-39.278	166.316	6.02911	-8.21494	165.976	35.5489	-26.5745	
96	0.8	130.239	58.0519	-18.0578	105.169	52.9796	-40.5283	92.1418	50.1841	-63.2897	90.5745	30.1818	-82.4311	139.783	49.0561	-88.1357	123.516	49.6088	-107.579	105.292	39.7189	-125.532	125.032	26.5286	-88.3012	95.5486	24.1737	-78.2341	102.516	30.8957	-44.4491	120.349	6.12284	-75.964	94.2131	15.0393	-57.375	111.156	26.1203	-31.7279	119.014	-10.1923	-65.5238	100.074	7.82092	-48.0952	115.466	14.6419	-23.3644	162.601	5.94011	-37.9143	166.139	8.43007	-9.22615	166.051	37.2073	-22.682	
97	0.808333	128.945	58.4123	-17.8762	105.485	53.817	-38.7375	89.6376	53.5823	-62.821	90.2255	30.401	-81.527	138.743	45.7464	-87.9108	119.649	46.2851	-107.252	100.182	40.1813	-124.17	124.762	27.3253	-88.8027	95.7293	28.4887	-79.4861	104.674	31.8042	-42.6964	116.305	7.90443	-77.3212	93.5191	12.0977	-59.8541	109.534	21.278	-30.7054	119.438	-6.01152	-65.3043	98.1723	4.58335	-44.8058	119.186	14.5039	-21.9971	161.586	3.8083	-40.514	167.206	7.532	-10.0148	165.233	38.6003	-25.4918	
98	0.816667	128.711	58.0095	-14.2257	102.405	55.9225	-35.6523	91.5217	49.9941	-61.2235	88.5896	30.3689	-83.1944	138.029	44.8036	-87.4949	119.709	43.4421	-107.284	98.9534	42.8911	-125.935	124.896	24.3215	-87.9192	93.6418	26.8861	-76.5051	102.1	32.9499	-44.474	119.329	6.63488	-76.0153	93.5598	13.1171	-61.1065	107.314	22.2779	-32.4624	118.654	-11.0103	-64.7368	98.6523	8.61848	-47.6901	118.111	15.8358	-25.5699	161.327	6.64346	-38.3066	165.918	5.97808	-6.36233	163.844	39.6829	-27.1299	
99	0.825	129.621	58.2688	-16.3843	103.28	54.4198	-36.6976	90.5445	50.0687	-64.2979	88.3211	29.983	-83.899	137.863	48.6862	-87.1155	121.768	48.1398	-106.513	100.61	42.0001	-127.002	124.982	28.0889	-87.9963	95.4389	27.4373	-78.9435	103.454	34.2592	-43.8727	117.275	8.55876	-76.5968	92.7987	13.2302	-58.2251	108.512	20.8617	-30.6654	115.728	-8.92331	-65.9464	97.1259	4.00205	-45.1167	117.624	17.6315	-24.0161	159.947	4.59465	-41.0032	166.077	3.9476	-7.54931	163.014	38.3638	-25.2841	
100	0.833333	129.913	55.903	-15.6785	101.989	56.8181	-37.3222	88.6683	51.1346	-60.9313	91.3618	27.5711	-79.3814	139.412	45.4289	-87.6352	123.353	47.9775	-110.196	108.729	42.2051	-127.048	125.297	25.5082	-85.8679	94.693	26.3266	-76.6647	103.64	32.201	-43.5989	119.093	7.54411	-76.3463	92.7113	16.1129	-59.4917	111.677	23.6796	-29.7294	118.828	-7.44352	-64.7668	97.7424	6.38579	-49.1816	117.629	14.7251	-23.2097	160.126	6.85965	-39.0342	164.913	3.25852	-8.26537	165.122	36.7506	-25.2845	
101	0.841667	128.778	58.1581	-18.8497	103.332	53.3065	-39.3648	88.7761	50.0209	-65.8854	87.9888	30.278	-80.5295	141.646	50.6733	-89.3666	129.241	50.8682	-109.582	115.219	44.5482	-132.875	124.43	26.6476	-87.1765	96.2616	29.1314	-78.4883	106.661	33.6223	-41.0596	118.817	12.0101	-77.0401	93.8257	16.6972	-59.3879	109.881	24.8019	-30.466	120.872	-5.14495	-64.1004	98.8407	7.0007	-47.3023	117.266	16.35	-22.6652	160.279	4.97337	-36.0583	163.29	6.93804	-6.03485	164.398	35.3757	-25.0142	
102	0.85	129.659	54.5715	-17.2238	102.107	55.4487	-38.3269	88.3539	49.7484	-65.8161	88.9547	28.8404	-77.8599	145.683	47.3129	-86.4274	135.767	47.538	-109.465	125.911	43.9415	-133.757	127.224	25.7464	-85.8273	95.2379	27.1411	-76.369	108.626	29.9532	-39.6247	120.38	8.41915	-75.2438	93.97	16.2229	-60.4847	108.002	23.8165	-30.1155	117.587	-4.81816	-65.4368	98.1482	5.36273	-47.4826	115.951	13.5262	-22.5007	160.991	5.65487	-40.6889	164.502	4.53129	-4.59081	164.372	34.1872	-23.6791	
103	0.858333	129.81	58.0802	-15.6432	103.679	55.4899	-38.1596	91.7459	48.9996	-63.1754	91.2841	25.8751	-81.8634	148.159	43.5906	-88.8463	140.269	48.1426	-113.14	134.457	46.0964	-136.841	127.092	23.2715	-84.9598	96.6302	30.2247	-76.5199	106.006	34.0927	-42.7355	118.199	10.384	-76.3856	94.1502	15.3064	-60.4473	107.682	22.1385	-29.9505	115.631	-6.55563	-65.212	97.2112	6.26236	-48.5853	114.863	15.2253	-21.861	160.747	2.22849	-38.7564	164.257	5.53996	-5.14403	165.236	37.9821	-22.9645	
104	0.866667	130.933	53.7279	-15.4686	102.968	58.7002	-40.7817	92.7408	49.0421	-64.9141	91.3416	28.5092	-78.8103	151.635	46.9994	-86.278	145.896	47.7626	-113.257	141.744	40.0686	-135.925	126.718	28.037	-87.7241	96.5644	28.0491	-78.1066	105.545	31.1676	-42.65	117.865	8.40078	-76.0711	93.6522	19.4664	-58.9906	109.534	20.8375	-28.5043	117.884	-7.10347	-64.8966	96.6506	5.76159	-46.5369	118.777	17.3256	-21.3491	161.124	2.35761	-35.4362	161.99	3.40453	-3.45612	163.148	32.5409	-21.8665	
105	0.875	132.382	55.8761	-18.1598	103.865	59.2237	-41.2585	91.118	51.5649	-67.7631	91.8658	26.7585	-80.9669	153.127	44.1513	-88.7804	148.507	44.8795	-111.704	147.096	39.2569	-134.17	126.829	25.2731	-86.8753	97.732	28.3035	-80.7151	105.824	33.429	-43.4889	115.914	11.4598	-76.6152	94.2299	21.385	-58.388	107.563	25.3702	-30.461	116.252	-6.01159	-64.4747	97.7532	10.3329	-45.1188	117.077	16.5465	-22.2361	159.062	1.83385	-38.3605	162.334	5.43496	-5.28796	163.358	35.2657	-25.421	
106	0.883333	133.527	61.0106	-18.8747	106.18	62.6555	-42.2166	94.0104	52.6425	-68.9041	91.7574	30.5955	-79.4429	154.105	39.0122	-88.9904	151.124	38.6406	-110.257	151.553	33.5811	-136.435	126.234	22.588	-87.5515	96.697	29.1747	-78.8587	108.571	34.7042	-41.7755	117.115	11.2393	-77.1135	94.6003	20.6104	-60.855	108.353	27.5956	-32.4922	116.013	-7.75135	-63.3791	96.4984	8.62235	-43.1109	115.273	13.4815	-20.7744	159.361	-2.80707	-38.1114	161.144	1.1019	-4.03898	165.438	33.226	-26.9398	
